<svg xmlns="http://www.w3.org/2000/svg" viewBox="0 0 2560.25 681.94"><defs><style>.cls-1{fill:#fff;}</style></defs><g id="Layer_2" data-name="Layer 2"><g id="Layer_1-2" data-name="Layer 1"><path class="cls-1" d="M2373.25,11.56c3.77-5.46,8.62-12.73,16.31-11.4a41.31,41.31,0,0,1-2.45,12.75c-20.49,26.56-18.22,61-2,77-1.61-7.78-5.54-15.08-5.72-23.1C2385.65,42,2400,41.63,2428.79,30.7,2443.7,25,2443,24.11,2451,24.6c0,1.09,0,3.29-.05,4.37-17.93,20.1-40.16,11.42-51,26.66-8.07,10.54-2.4,24.34-.36,36,2.85-7.43,4-15.71,8.62-22.36,8-5.76,26.14-9.44,35.52-12.54,3.35-3.09,6.25-6.63,9.29-10,2.38-1.43,5.13-1.83,7.88-2.31A20.79,20.79,0,0,1,2451,64.79c4.13,1.39,11.65,4.83,8.14,10.36-12.09-.83-16.26-11.38-39.3-1.36-9,4.95-8.85,16.65-11.47,25.35,9.82-9.91,18.59-24.73,23.3-11.88-8.15,3.78-13.7,12.32-15.15,20.9,3.37,6.12,11.42,7.38,17.57,9.43,12.77,3.77,11.66,1.94,19.42,16.29,9.48.68,18.66-2,27.64-4.71,9-.66,16.72,7.48,25.58,4.35,11.63-3.59,26-20.89,24.39,3.89-1.38,6.53,3,12.21,3.79,18.53-5.38,2.92-11.4,3.58-17.38,3.72-17.79,16.07-17.69,10.72-15.56,19.47,2.18,6.55,8.07,17.46,15.73,26.22,9.15,10.63,13.52,10.88,15.46,41-2-3.35-4-6.76-5.89-10.16,1,11.19,2,22.92-2.85,33.46-1.19-2.61-2.18-5.22-3.28-7.81-.62,15.7-5.28,23.24-6.53,25.57-.19-2-.59-5.91-.78-7.88-5.18,11.06-10.22,23.84-22.82,28.28,1.42-3.13,3.11-6.18,4.68-9.26-2.16,1.56-4.32,3.11-6.42,4.67,2.31,9.51,9,16.89,14.25,24.87,12.2,3.57,13.09,3.83,23,5.65,22.62,4,10.55,15,33.74,45.48-.22,2-.34,4.05-.48,6.09-9.08,11.42-14.93,7.88-22.65,14.92-9.16,22.5.51,23-19.36,36-18.12,11.29-20.84,30.12-62.14,47.19,2.09-8.6,1.36-17.41,1.17-26.15-.24-7,7.83-7.52,12.86-8.81,6.28-2.49,14,2,19.1-3.61,36.47-31.91,26.48-19.63,31.74-35.71q-15.94,8.89-32.07,17.34c-10.2,6.62-23.07,19.26-40,17.8,4.06-10.07,3.85-21.09,6.41-31.51,1.49-2.07,3.2-4.42,6.19-3.56,34,3.16,27.37,3,42.58-4.56,6.61-3.58,13.49-6.93,19.29-11.83,2-7.33-2.64-5.6-30.92-39.7-89.85-5.23-82,.27-82.09-20.13-88.16,14.67-107-22.09-125.1-25-10.3,3.76-15.58,14.9-25.48,19.6-28.59,15-66.7-8.93-90.4,18.87-28,31.55-60.74,38.44-53.78,49,2.77,7,8.47,12.18,13.27,17.79,3.39,3.65,3.21,8.88,3.87,13.49-9.21,3.13-19,3.79-28.57,4.41-17.16-37.58-17.26-33.9-10.49-58.77,4,.95,7.83,2.52,12,2.59,3.54-1.57,6.53-4.13,9.8-6.22,9.8-5.81,17.29-5.73,26.37-23.49,11.06-21.66,11.89-38.52,15.17-48.82,42.67,1.13,51.51-13.78,59.31-32.43-94.82,9.21-106.1,42.9-239.22,155.55-4.67,2.52-6,7.32-6.05,12.26-1.38-1.78-2.76-3.52-4.11-5.28a121.86,121.86,0,0,1-1,26c-1.19-3-2.31-6-3.42-9-1.6,11.89-4.3,25.33-15.27,32.24.68-3.33,1.63-6.62,2.45-9.92q-2.82,3.42-5.58,6.84c4.82,7.76,11.79,13.84,18.75,19.63,10.12,5.34,34.46-4,41.39,7.32,9,14.78,22.29,27.47,27.36,33.38-1,11.19-12.16,16-19.57,22.7-.57,8.43-.28,16.87-.8,25.29-1.65,8.88-10.27,13.59-15,20.69-20.15,30-14,29.78-45.2,53.87-.16-21-9.25-28.72-1.89-33.21,6.39-3.52,13.11-8.29,20.84-6.92,10.55-10.77,17.94-24.17,27.88-35.5,0-3.72,0-7.43,0-11.15-8.63,7.57-17.13,15.29-26,22.55-10.52,10.92-20,25.12-36.24,27.45.91-9-.05-18-.66-27,.52-14,0-7.81,34-14.54A218.76,218.76,0,0,0,1997,551.92c-1.38-3.06-2.61-6.53-5.87-8-11.87-6.86-22.27-15.91-33.74-23.32,0,0-31.86,6.05-76.53,12-6.72-.52-6.56-9.19-7.94-14.11-17.83,7.8-37,12-56.18,14.87-42.38,6-65.84-18.79-74.58-9.16-7.46,8.69-12.09,20.2-22.35,26.24-27.72,16-64.47,4-80.53,37.21-21,36.65-40,38.64-41.24,54.49,3.77,7.91,12,11.9,18.45,17.2,3.87,2.94,5,7.86,6.3,12.27-8.44,4.58-17.6,7.55-26.74,10.36-17.57-22.07-27-31.47-22.78-55,3.89-.31,7.94.74,11.76-.38,5.41-4.47,9.62-10.26,15.45-14.3,7.1-4.86,10.59-13.08,12.88-21,9.71-35-1.18-52,7.74-53.12,61.55-15.68,41.43-42.74,51.22-79.8-29.06-8.07,20.07,6.57-125.71-64.88,13.35,30.81,25.11,24-8.91,42.17-2.45,7.63-4,15.51-6.25,23.16-2.68,7.38-10.82,10-16.34,14.74-23.58,20.46-15.7,23.39-55,42,3.84-20.8-1.84-26.63,4-30.64,7.08-2.85,14.87-4.42,22.49-3.09,4.53-2.27,31-25.52,32.37-26.94,1.68-3,1.68-6.68,2.46-10-10,6-20.35,11.09-30.49,16.7-11.33,7.77-22.75,17.88-37.54,16.64,5.72-15.55,3.2-34.4,10.74-33.45,9.33,1,18.8.68,28.08,2.39,11.21-5.24,22.3-10.87,32.47-18-.79-2.83-.93-6.13-3.35-8.16-9.86-9.29-18.19-20-27.41-29.92-24.64.56-49.2-2-73.68-4.26-5.2-2.54-3.25-9.59-3.49-14.25-28.34,4.38-63,4.92-88.83-7.71-18.27-8.9-27.19-20.17-34.31-14.32-8.29,6.31-9.44,10.53-21.85,17.88-28.18,11.55-54.88-7.51-81.33,14-1.16,1.16-19.68,22.32-38.62,32-5.88,3.56-12.87,7.08-15.6,13.78.69,9.26,9.12,15.24,14.39,22.15,2.23,6.65,1.89,6.34,2.11,11.23-5.81,2.32-13,3-26.69,4.34-17.35-33-15.62-37.46-10-56.22q4.92,1.59,9.89,3.15c6.78-3.7,13.06-8.24,20.09-11.47,14-6.52,22.57-32.09,26.18-47,1.44-6.26,1-17.22,6.91-16.57,14.54.28,30-2.06,41.68-11.38-102.8,3.82-140.22,33.33-211.7,68.71-7.25,3.58-7.19,3.6-9.64,5.08-4.1,5.83-3.42,6.94-11.44,13.2.59-3.13,1.37-6.18,2.08-9.26-1.77,2.06-3.55,4.11-5.26,6.2,4.46,7.42,10.9,13.25,17.42,18.83,4.68,5.07,27.62.72,39,4.46,5.6,5.56,13.62,21.54,30,35.93,1.18,11.14-7.92,15.37-17.22,22.54l-1.16,1.54c-3.25,11.7,2.87,26.35-7.2,35.6-21.88,19.48-13.06,32.61-54.74,63.85-1.62-23.64-7.41-25.74-3.37-31.89,5-3.57,10.79-6,16.49-8.27q2.94.07,5.89.2c6.45-5.39,15.29-19.83,25.59-32.13,3.89-3.75,2.4-9.36,2.68-14.13-9.7,8.29-19.56,16.43-29,25.07-10.58,11.23-18.06,22-33.49,24.23,1.4-10.55-1.44-21.07-.54-31.57.11-10.08,28.62-4.5,36.81-11.59,9.07-7.19,18.06-14.58,25.78-23.26-5-9.53,3.12-.36-39.73-31.87-23.61,5.18-60.49,10.47-78.76,12.47-3.63-4-4.65-9.39-5.46-14.56-16.67,7.53-42.63,13.42-60.74,14.94-41.86,3.76-62.36-20.5-70.63-9.31-18.22,21.58-9,27.51-64.3,36.71-35.81,5.35-32.89,26.33-62,56.28-7.34,6.43-15,13-18.81,22.29,4,7.68,11.11,12.73,18.05,17.53,4.51,2.87,5.95,8.22,7.55,13-8.34,5.06-17.79,7.71-27,10.52-19.24-25.41-25.58-29.19-22.34-55.79,13.49,1.83,10.16,1.75,18.26-5.88,9.06-10.32,29-11.77,26.38-77.89.18-4.7,6.34-4.46,9.64-5.61,51.15-11.83,39.59-48.62,43.07-69.86-58.29-24.13-115.5-50.84-174.41-73.45-19-7.43-38.81-12.41-57.92-19.54-65.56-23.3-117.35-51.76-155.87-18.16,3.89,2.71,7.41,6,9.54,10.3-9,11.82-4.58,6.89-20.13,8.57-3.28,8.84-2.56,18.46-2.61,27.72-.23,24.9,13.33,36.9,21.73,46.49,3.61,3.87-2.9,10.14-6.82,6.77-27.43-21-25.3-52.95-25.38-68.36-7.77,3.17-16.46,1-24.27,4-8,2.87-15.8,6.48-23.85,9.36.39,4-1.83,11.13,4,11.7,7-.38,13.13-6.55,20.59-4.39,3.94.23,3.68,4.66,4.3,7.52,7.84,2,19,4,20.25,13.8.62,12.07-4.7,23.39-6.67,35.13-2.78,16.1-4,32.46-4.86,48.77,58.83-12.5,41.73-68.66,75.46-103.79,11.16-12,30.44-15.23,44.86-7.39,25.88,14.26,18.62,56.37-5.34,57.61-15.78.83-18.47-30.69,2.34-21.18-1.58-3.61-2.47-9.29-7.38-9.58-16.64.84-26.12,16.31-.48,46.4,15.85,19.16,6.16,63.29-24.78,75.56,1.2,2.66,3,5.35,2.51,8.43-1.52,8.6-14.87,12.28-20.13,5.07-2.66-2.86.3-6.09,1.2-9-4.53-2.86-9.85-2.31-13.37,1.84,7.46,15.06,14.06,31.11,26.79,42.66,8.18,9.69,47.24,13.69,58.46-6.34,6.2-9.5-4-23.13-14.7-21.33-3.08.52-6,3.35-5.79,6.62,3.07,2.35,8.15,2.66,9.55,6.77-.1,4.27-4,6.22-7.25,8-3.53-1.91-7.4-3.56-10-6.67-7.41-8.37.59-21.8,10-24.39,10.38-.48,20.47,6.17,25.55,15.07,4.21,7.89,1.1,17.05-1.14,25.08,63-34.37,59.56-93.2,32.13-107,1.5,10.33,2.74,22.55-4.82,31-8.67,8.74-23.15,9.81-34.15,5.3-23.07-10.68-23-49.42.29-59.89,19.17-8.1,43.07-.07,55.14,16.51,19.14,25.18,19.09,72.13-8.9,100.56C430.55,570,367.1,562.83,350,563.23,67.56,557,61.78,575,38.73,535.82,25,511.8,38,493.51,54.85,493.94c29.44-.39,26.29,51.46-9.07,28.92,17.66,32.25,25.49,27.45,43.31,28.24-18.9-16.12-15-44.46,10.62-46.74C106,504,109.94,510,112.32,515c5.93,12.48-17.36,23.85-17.24,9.45,1.63-3.49,6.14-3.63,9.16-5.3-1.31-1.73-1.78-4.2-3.68-5.39C90.68,509.52,79.19,523,85.49,532,90,539,99,545.56,107.61,542.66c15.77-11.87,24.2-30.37,32.61-47.66-2-1.35-4-2.68-6-4l-5.39,2.33c.61,2.57,2.75,5.49.68,8-4.88,7-18.44,2.35-17.75-6.25-.32-3.87,3.44-5.84,5.72-8.28-31.73.88-63.72-1.1-77.68-29.83-16.44-35-12.7-69.54,18.47-94.61C76.93,347.72,71.68,304.1,49.72,302c-8.53-.74-18.28,2.25-23.06,9.76-3.89,6.14-2.25,13.67-1.13,20.37,1.78-5.11,2.54-10.92,6.4-15,8.35-9,31.34-8.7,31.83,10.45.5,17.9-12,38.2-36.57,29.64-40-12.1-36.16-86,13.36-91.69-1.84-5.11-2.61-12.08-9.32-12.8L33.84,250c-3.09-1.23-6.15-2.51-9.22-3.77,8-7.12,19.28-4.75,28.79-7.65q-.94-2.59-1.91-5.19c6.87-1.9,14.27-.32,21-2,6.26-6.87,16-2.6,22.18,2-4.26,1.49-8.49,3.23-12,6.1l5.43,1.66c-.11,1.33-.3,4-.4,5.28,37,18.08,49.28,32,41.39,82.89,9.16,11.05,18.55,21.9,27.8,32.89,25.19-27.24,9-59.92,13.63-85.24-8.61,2.56-16.07-4.11-18-12.11,4.6-.95,7.45,2.84,11,4.94,3.3.32,5.2-3.42,5.91-6.13-1.76-5.47-5.67-10.19-5.53-16.22-10.72.84-6.5.1-10.64-6.11,1.37-1.32,2.73-2.61,4.1-3.91,0-2.57,0-5.15.05-7.72a76.62,76.62,0,0,1-25.14,25.5c-.38,3.59.9,8.81-3.37,10.52-10.4,3.73-22.07-9.26-15.22-18.85,3.53-6,10.84-2.94,15.05.43,22.53-41.71,19.5-68.06,70.95-58.75,7.79,2.23,9.46,11.4,11.83,18,2.66-.78,5.32-1.56,8-2.37,4.72,4.09,8.54,9.95,8.43,16.37-1.43,3.74-4.47,6.53-6.94,9.57q4.09,2,8.13,4.06c-1,2.63-1.93,5.24-2.92,7.85,12.2,4.73,10,2.36,16.16,15.86,2.52,6.42,7,12.35,7,19.52.5,4.78-.4,10,1.87,14.4,3.71,4.44,9.72.62,12.9-2.5,3-4.32-1.88-8-4.13-11.33,2.89,1.48,6.44,2.15,8.62,4.75-.36,1.31-1.09,3.92-1.45,5.23l1.14,2.45c4.72-2.9,9.31.31,13.51,2.32,11.79-11.49,14.37-9.94,29.94-6.57,45.58-46.5,120-1.38,192.85,21.44,24.33,7.12,55.8,17.95,192.13,78.14.11-2.2.23-4.37.36-6.55,2.47,1.24,5,2.52,7.43,3.8-3.9-6.89-4.64-14.75-3.07-22.42a68.82,68.82,0,0,0,6.79,10.57c-.57-6.88-3.77-15.95,3.8-20.21.1,2.12.29,6.37.39,8.48,4.08-4.32,7.28-9.8,12.89-12.35.85,7.62-7.22,11.4-7.46,18.57-.57,6.94-1.66,15.39,3.94,20.71,6.7-1.28,11.9-6.32,17.88-9.35,15.14-7.78,45.85-14.68,77.33-6.11,11,2.81,49.15,6.75,65-.14,17.32-6.69,18-10.15,24.15-14.08,12-7,25.91,1.47,28.54-54.95-30.56-12.54-32-18-37.78-32.77-29.52,12-25.05,12.93-37.28,12.59,15.57-26.52,25-22.67,41.36-22.07-2.06-3.37-3.35-9.14-8.4-8.67-45.91-3.08-46.85,1.43-66.4-12.62-12.14-15.35-43.28-13-47.42-33.49-1.9-9.68-3.85-20.06-.64-29.66,7.21,6.92,4.37,17.91,9.33,26,4.15,9.44,15.7,9.63,23.51,14.5-9.38-27.76-11.53-64.43,9.55-81.35,6.81,8.47-.36,18.55-2.59,27.26-5.18,22,0,49.1,19.66,62.52-3.14-7-8-13.27-10.29-20.66-1-27.07,18-31.24,41.7-47.72,5.35-3.69,10.71-7.46,16.65-10.22.85.64,2.57,1.91,3.42,2.57-1.09,6.22-8,12.49-13.85,17.34-10.23,6.85-24.59,9.23-30.3,21.32-6,12.13,2.54,24.7,7.13,35.76,3.24-26.08-3-23.43,30.66-40.75,10.84-4.66,9-18.17,19.49-18.23a20.82,20.82,0,0,1-5.74,21.49c3.79,1.21,9.92,1.35,10.58,6.4,1.42,5.3-11,1.49-16.38.48-33.07,3.72-28.27,22.83-28.21,35.88C875.54,207,873,203.42,882.55,211c-7.74,5.48-9.74,15-11.47,23.69,8.43,7,19.92,4.87,29.95,6.44,5.84,1.62,9.18,7.27,13.2,11.37,5.68-1.72,9.67-2.56,16.9-6.34,3.21-1.7,6.23-3.84,9.76-4.91,6.67-1.4,13.33,1.61,20,.92,10.76-2.83,15.63-14.17,23.41-15.59,3.35,1.61,4.49,5.33,5.9,8.47-1.24,7.19,3.18,12.77,6.79,18.4.26,7.51-9.86,7.62-15,10.14-4.16,4.47-7.53,9.65-11.64,14.2-9.23,8.4,32,38.15,33,39.12,4.24,4.63,6.84,10.65,12.68,27.85-2.78-2.66-5.56-5.35-8.31-8,4.7,15.87,5.64,14.4,4.84,32.23a31.2,31.2,0,0,1-5.63-6.75,86.76,86.76,0,0,1,1.1,18.71c-1.24,1.12-2.45,2.22-3.66,3.35l-1-3.28c-.28,1.48-.83,4.49-1.09,6l65.54-33.46c50.65-25.33,104-37.45,159.84-37.36,9.48-16.93,1.87-11.83,15.6-42.38-4.57-1.42-5.67-1.43-11.21-5.44a13.81,13.81,0,0,1-1.31-11.59c2.34,1.73,4.68,3.51,7,5.28-3.21-6.82-1.61-14.13.79-20.9,1.49,3.58,3,7.15,4.6,10.7.78-6.34-.47-16.26,7.81-17.83-.66,2.78-1.26,5.58-1.92,8.36,3.73-3,7.46-6,11.35-8.86l3.51-.37c-1.32,2.49-2,5.48-4.34,7.31-7.9,6-10.11,17.33-8.31,26.6,2.35,3.37,6.25.71,9.31.07,23-9.55,53.9-6.22,73.25,1.23,15.2,8.78,32.11,13.92,49.25,17.48,15.09,3.68,31.37.78,45-6.46,20.18-7.63,21,8.86,39.39-45.64-23.8-17.93-25-18.81-28.42-38.4-35.42,6.66-28.22,6.78-37.21,3.47,20.22-18.29,22.51-16.77,43.15-11.45-1.55-3.47-1.78-9.18-6.58-9.73-40.66-11.74-48.07-8.71-63.38-32.09-10.37-10-27.23-14.48-32-29.46-1.07-10.69-.6-22.66,5.18-32,4.79,8,.07,17.37,3,25.84,1.94,9.72,12.82,12.21,18.9,18.71-1.66-15.86-1.57-32.5,4.75-47.4,4.27-10.42,9.66-22.08,20.89-26.42,5.14,10.06-5.45,17.73-8.78,26.31-8.5,19-9.26,44.62,6.3,60.22-5.45-20-9.65-19.93,1.59-36.79,6.55-9.85,19.26-11.06,29.32-15.46,10.57-3.13,20.28-9.71,31.54-10.09a52.76,52.76,0,0,1-1,6A50.12,50.12,0,0,1,1430,97.75c-34.18,6.94-27.39,24.19-22.82,45.64,2.33-7.36,3.43-15.48,8.08-21.82,9.11-5.48,19.75-7.55,29.87-10.45,7.67-1.65,14.3-16.92,20-12,1.4,7.43-3.18,14.36-9.21,18.28,3.75,1.93,10,3.89,8.12,9.47-5.89,1.86-11-3.84-16.77-4.32-28.38-2.36-28.77,12.4-31.43,27.22,5.15-5.78,10.08-11.81,16-16.89a42.63,42.63,0,0,1,5.84,5.87c-8.38,3.54-12.13,12.08-15.53,19.87,6.37,7.2,16.23,8.44,24.89,11.24,6.13,1.83,8.45,8.48,11.18,13.6,8.2.39,16.18-1.68,23.94-4.13s14.49,3.64,21.9,4.33c11.26-.32,20.88-13.33,26.26-8.39,4.39,6.17-.83,14,2.8,20.37.69,2.72,3.25,6.06,1.07,8.68-4.2,3.68-10.28,2.53-15.32,3.79-5.38,4.09-10.32,8.76-15.91,12.56,6.42,27.22,24,34.12,27.33,45.72,2.14,7.64,3,15.55,4,23.41-2.18-3-4.3-6-6.39-9,2,10.59,1.86,21.63-2.25,31.73-1.11-2.57-2.14-5.13-3.16-7.7a65.83,65.83,0,0,1-6.06,25c-.4-2.68-.78-5.34-1.13-8-4.51,10.76-9.88,22.23-21.38,27.07,1-2.37,3-7.09,4-9.45-1.29,1.17-3.9,3.5-5.21,4.66.38,6.53,4.59,12.34,8.91,17,110.78,55-75.22-43.17,158.43,79.74a126.36,126.36,0,0,1-.49-15.32c2.49,3.14,4.89,6.37,7.34,9.57-1.12-7-3.57-15.89,3.58-20.64.21,3,.4,6,.55,9,3.75-4.61,7.33-9.5,12.25-13,1,5.71-2.64,10-5.72,14.23-2.29,8.66-2.9,18.92,3,26.34,7.2-3.6,37.44-27.46,85.42-19.46,18,5.71,37.2,6.34,56,6,24.23.12,40.46-18.57,48.37-20.46,6.44-1.79,13-5.3,15.61-11.85,4.64-11.45,6.5-28.68,6.55-41.15-25.06-8.95-32-16.26-37.64-32.3-31.7,13.52-27,13.62-37.43,12.21,17.06-23.22,18.07-22.58,41.44-21.8a88,88,0,0,0-5.37-8.57c-14.53-.31-29-1.65-43.55-1.83-10.35,0-19.92-5.32-27.49-12-17.35-18.64-54.16-4.54-47.78-60.6,2.06,1.54,4.79,3,5.17,5.82,6.8,34.23,11.14,23.12,28.69,33.93-14.46-42.11-2.29-80,11-80.47,4.55,11.42-5,21.34-5.44,32.53-2.78,20.49,3.2,44.8,21.72,56.34-4.43-9.07-13.7-17.71-10.59-28.63,2-8.39,5.37-17.45,13.18-22.06,45.86-29.31,38.36-26.83,47.21-27.83-.33,2.63.4,5.72-1.62,7.83-21.77,28.85-61.28,15.47-34,68.51.81-7.78.15-16,3.16-23.36,8.79-9.07,21.18-13.3,31.56-20.16,4.79-5.37,6.41-13.7,14-16.27a20,20,0,0,1-5,22.66c3.21.92,7.34.61,9.74,3.44,1.18,1.71.45,4,.69,5.93-6.93-.85-26-7.6-41.28,9-4.22,7.15-2.77,16-2.85,23.93,12.79-19.5,10.13-23.79,19.26-17.61-.28,3.18-3.25,5-4.89,7.4a38.74,38.74,0,0,0-5,17.69c8.73,7.93,21.7,3.66,32.08,7.15,4.34,2.35,7.14,6.6,10.3,10.28a75.84,75.84,0,0,0,23.06-9.73c7.84-4.91,17,1,25.31-1.19,8.3-3.08,13-11.37,20.71-15.48,4.11,2.06,2.84,1.39,4.71,2.42,2.11,5,2.32,10.38,3.65,15.55,4.51,8.82,8.92,8.83,2.3,15.2-15.74,6-7-1.56-25.38,21.16,6.91,13,16.65,22.83,29,30.9,11.54,6.74,14.85,20.75,18.86,32.52-2.81-2.54-5.47-5.12-8.15-7.73,1.48,4.27,2.92,8.55,4.27,12.89,125.24-105.58,145.72-149.76,247.7-158.18,2.79-9.94,5.23-15.26,9.55-24.09-16.69-6-14.26-10.88-13.66-17.27l3.3.6c1.46,1.46,3,2.91,4.59,4.32-4.65-12.2.24-20.34,1.18-22.38,1.17,3.74,2.43,7.49,3.9,11.17.66-4,1.19-8.12,1.95-12.14a49.42,49.42,0,0,1,3-5.25l3.54-.83q-.8,4.22-1.45,8.46c3.87-3.23,7.74-6.49,11.82-9.51.83.19,2.49.55,3.32.72-3.54,8.6-7.16,7.37-10.51,13.63-2.47,7.65-5.7,16.48-.81,23.89,9.49-2.92,18.74-6.77,28.63-8.15,23.28-1.9,48.12.74,68.46,13,45.19,19.34,69.18,15,86.21,5.8,6.83-3.59,15.46-1,21.86-5.87,9.94-7.37,14.53-24.42,20.66-42.43-26.35-19.54-26.7-21.34-30-40.45-31.64,5.24-29.22,7.94-39.17,3.71,21.08-19.11,24-18.09,45.5-12.11-4.08-9.28,5-9.05-44.57-20.45-20.06-4.5-25.91-22.75-33.48-27.45-28.13-19.46-34.1-18.08-27.12-55.87a8.46,8.46,0,0,1,4-4c3.78,8.85-1,18.68,2.85,27.57,2.44,9.43,13.37,11.42,19.26,18.12-2.09-24.85-.65-42.7,12.57-64.73M265.89,289.86c-1.33,9-9.59,15.61-18.64,13.37.66,1.31.62,3.21,2.27,3.8,6.47-2.2,12.59-5.27,18.82-8.07a43,43,0,0,0-2.45-9.1m-73,111.73c18.88,16.89,38.4,34,61.63,44.69.21-17.17,2.25-34.2,3.75-51.27C236.4,397.22,215,405.42,192.84,401.59Z"/></g></g></svg>